<svg xmlns="http://www.w3.org/2000/svg" viewBox="0 0 512 512"><defs><style>.cls-1{fill:#b1bfea;}.cls-2{fill:#313d74;}.cls-3{fill:#d2894e;}.cls-4{fill:#caa677;}.cls-5{fill:#f6e0b8;}.cls-6{fill:#c5b596;}.cls-7{fill:#d7932a;}.cls-8{fill:#be8028;}.cls-9{fill:#ad7d55;}.cls-10{fill:#946f4e;}.cls-11{fill:#935d32;}.cls-12{fill:#7b4f2e;}.cls-13{fill:#f5db8f;}.cls-14{fill:#603d27;}.cls-15{fill:#854538;}.cls-16{fill:#773d35;}.cls-17{fill:#a15a50;}.cls-18{fill:#eaac2e;}.cls-19{fill:#ecc165;}.cls-20{fill:#b97b4a;}.cls-21{fill:#b4956e;}.cls-22{fill:#c27135;}.cls-23{fill:#fff;}.cls-24{fill:#db3a46;}</style></defs><title>Food</title><g id="BULINE"><circle class="cls-1" cx="256" cy="256" r="256"/></g><g id="Icons"><path class="cls-2" d="M452.15,420.5a255.93,255.93,0,0,1-389.82,2.91c-.84-1-1.66-1.93-2.48-2.91Z"/><path class="cls-3" d="M147.2,292.44l5.89,16.43,1.86,5.18V327.3h4.36l.29-.29.1.29h41l7-7,11.43-11.43H222l-1.28-3.59L218.83,300h44.62v-7.56Zm-26.94-79.72a19.62,19.62,0,0,0,1.13,7.7l.72,2c.65-3,1.41-5.94,2.28-8.92a159,159,0,0,1,6-16.95A19.72,19.72,0,0,0,120.26,212.72Zm310,20.05a167.79,167.79,0,0,0-5.09-26.48c-.46-1.7-.95-3.39-1.47-5.09A192.89,192.89,0,0,0,410,167.8c-.71-1.36-1.44-2.7-2.19-4-2.72-4.92-5.67-9.7-8.81-14.32-.6-.88-1.2-1.75-1.81-2.61s-1.39-2-2.1-2.91a151.48,151.48,0,0,0-24.17-26.14q-2.7-2.27-5.44-4.33a110,110,0,0,0-18.33-11.2c-.8-.38-1.61-.76-2.42-1.12a87.62,87.62,0,0,0-36-7.91H206.63a87.64,87.64,0,0,0-36,7.91,106.92,106.92,0,0,0-20,11.79c-.69.51-1.38,1-2.06,1.56a148.2,148.2,0,0,0-29.2,30.69c-.41.54-.79,1.1-1.19,1.66-.67.95-1.33,1.91-2,2.87A186.7,186.7,0,0,0,105,168.51,191.25,191.25,0,0,0,90,207q-.57,2.11-1.08,4.23h0a163.26,163.26,0,0,0-3.81,21.49,140.7,140.7,0,0,0-.86,15.34V327.3H431.1V248.11A140.7,140.7,0,0,0,430.24,232.77ZM121,227.94q.49-2.74,1.12-5.52c.65-3,1.41-5.94,2.28-8.92a159,159,0,0,1,6-16.95c0-.1.09-.21.13-.32a157.72,157.72,0,0,1,10.68-20.92c1.72-2.86,3.55-5.65,5.46-8.35l.23-.32c1.29-1.83,2.62-3.61,4-5.32,10.38-13.19,22.06-22.83,34-28.23a63,63,0,0,1,7.5-2.83,49.86,49.86,0,0,1,14.3-2.18H308.7A49.43,49.43,0,0,1,323,130.26c1.45.43,2.89.93,4.33,1.5l1.38.56c12.18,5.06,24.17,14.57,34.82,27.79.53.65,1.05,1.3,1.56,2q1.85,2.37,3.61,4.88,2.64,3.72,5,7.64a158.57,158.57,0,0,1,12.13,24.11c1.86,4.63,3.49,9.33,4.88,14,.59,2,1.14,4,1.63,6a133.75,133.75,0,0,1,2.76,14,108.53,108.53,0,0,1,1.13,15.34v44.33H119.09V248.11a108.53,108.53,0,0,1,1.13-15.34C120.45,231.17,120.7,229.56,121,227.94Z"/><path class="cls-4" d="M120.22,232.77a108.53,108.53,0,0,0-1.13,15.34v25.3H84.23v-25.3a140.7,140.7,0,0,1,.86-15.34Z"/><path class="cls-4" d="M141.18,175.31a159,159,0,0,0-16.79,38.19L90,207a191.25,191.25,0,0,1,15-38.53Z"/><path class="cls-4" d="M184.83,133.09c-11.93,5.4-23.61,15-34,28.23l-31.48-16.15a148.2,148.2,0,0,1,29.2-30.69Z"/><path class="cls-4" d="M395.05,143.92l-31.54,16.19c-10.65-13.22-22.64-22.73-34.82-27.79l36.75-18.87A146.57,146.57,0,0,1,395.05,143.92Z"/><path class="cls-4" d="M344.69,101.13,323,130.26a49.43,49.43,0,0,0-14.28-2.18H273.94l4-5.43L299.9,93.22h8.8A87.62,87.62,0,0,1,344.69,101.13Z"/><path class="cls-4" d="M241.36,128.08H206.63a49.86,49.86,0,0,0-14.3,2.18l-21.71-29.13a87.64,87.64,0,0,1,36-7.91h8.76l22,29.47Z"/><path class="cls-4" d="M425.15,206.29l-34.43,6.45a159.65,159.65,0,0,0-17-38.14L410,167.8A192.42,192.42,0,0,1,425.15,206.29Z"/><path class="cls-4" d="M431.1,248.11v25.3H396.24v-25.3a108.53,108.53,0,0,0-1.13-15.34h35.13A140.7,140.7,0,0,1,431.1,248.11Z"/><rect class="cls-4" x="237.35" y="93.22" width="40.63" height="34.86"/><rect class="cls-5" x="241.36" y="13.25" width="59.96" height="334.49" rx="29.98"/><path class="cls-6" d="M271,100.87c12.85,0,23.27-2.93,23.27-6.55S283.8,87.77,271,87.77c-2.63,0-5.15.12-7.5.35V60.72c2.35.22,4.87.35,7.5.35,12.85,0,23.27-2.94,23.27-6.55S283.8,48,271,48c-2.63,0-5.15.13-7.5.35V43.23a30,30,0,0,1,18.94-27.89,30,30,0,0,0-41,27.89V317.76a30,30,0,0,0,41,27.89,30,30,0,0,1-18.94-27.89v-.85c2.35.22,4.87.35,7.5.35,12.85,0,23.27-2.94,23.27-6.55s-10.42-6.56-23.27-6.56c-2.63,0-5.15.13-7.5.35V275.89c2.35.23,4.87.35,7.5.35,12.85,0,23.27-2.93,23.27-6.55s-10.42-6.55-23.27-6.55c-2.63,0-5.15.12-7.5.35V231.71c2.35.23,4.87.35,7.5.35,12.85,0,23.27-2.93,23.27-6.55S283.8,219,271,219c-2.63,0-5.15.12-7.5.35V188.84c2.35.22,4.87.35,7.5.35,12.85,0,23.27-2.94,23.27-6.56s-10.42-6.55-23.27-6.55c-2.63,0-5.15.13-7.5.35V144.26c2.35.23,4.87.35,7.5.35,12.85,0,23.27-2.93,23.27-6.55s-10.42-6.55-23.27-6.55c-2.63,0-5.15.12-7.5.35V100.52C265.8,100.75,268.32,100.87,271,100.87Z"/><ellipse class="cls-7" cx="180.2" cy="204.8" rx="61.9" ry="157.33" transform="translate(-23.65 23.52) rotate(-7.01)"/><path class="cls-8" d="M180.84,214.6a160.33,160.33,0,0,0-29.37,6.18q-.93-6-1.7-12.23-1.31-10.63-2-21a162.42,162.42,0,0,0,29.63-1.14c25.94-3.19,46.36-10.81,45.59-17s-22.41-8.66-48.36-5.47a165.26,165.26,0,0,0-27.69,5.65,331.89,331.89,0,0,1,1-35.48c6.58,1.32,15.57,1.55,25.35.34,19.2-2.36,34.14-9.31,33.38-15.52s-16.95-9.33-36.15-7a91.14,91.14,0,0,0-20.54,4.8c4.62-30.5,14.11-53.9,27.12-65A28,28,0,0,0,161,48.65c-33.93,4.17-52.85,77.47-42.24,163.71S165.48,365.13,199.4,361A28.14,28.14,0,0,0,214.29,354c-17-8.47-33.48-32.69-45.9-66.23a86.47,86.47,0,0,0,23.78.05c19.2-2.36,34.14-9.31,33.38-15.52s-17-9.34-36.15-7c-10.69,1.32-20.06,4.06-26.14,7.3a350.51,350.51,0,0,1-8.69-34.38,164.14,164.14,0,0,0,29-1.18c26-3.19,46.36-10.82,45.6-17S206.78,211.41,180.84,214.6Z"/><ellipse class="cls-9" cx="355.74" cy="232.77" rx="157.33" ry="61.9" transform="translate(49.75 527.91) rotate(-77.16)"/><path class="cls-10" d="M353,242.2A161.19,161.19,0,0,0,323.3,238q1.17-6,2.55-12.08,2.38-10.44,5.22-20.41a161.59,161.59,0,0,0,28.25,9c25.49,5.81,47.28,5.57,48.67-.54s-18.15-15.76-43.63-21.56a164.46,164.46,0,0,0-28-4.09,332.17,332.17,0,0,1,13-33c5.73,3.48,14.12,6.74,23.72,8.93,18.86,4.3,35.28,2.83,36.67-3.27S397,146.46,378.18,142.16a90.71,90.71,0,0,0-21-2.46c14.71-27.12,31.57-45.9,47.59-51.93a28.06,28.06,0,0,0-14.11-8.4c-33.33-7.59-76,54.93-95.31,139.65s-7.92,159.56,25.4,167.15a28.07,28.07,0,0,0,16.35-1.45C324,371,316.75,342.6,316.46,306.83A86.07,86.07,0,0,0,338.8,315c18.87,4.3,35.28,2.83,36.67-3.27s-12.77-14.53-31.63-18.83c-10.51-2.4-20.25-3-27.06-2a349.22,349.22,0,0,1,3.49-35.3A163.66,163.66,0,0,0,348,264.3c25.49,5.81,47.28,5.57,48.67-.53S378.51,248,353,242.2Z"/><rect class="cls-11" x="102.48" y="192.74" width="109.87" height="197.5" rx="19.69" transform="translate(-89.12 70.2) rotate(-19.72)"/><path class="cls-12" d="M199.92,381.16l-42.37,15.19a19.69,19.69,0,0,1-25.17-11.9L79,235.6a19.67,19.67,0,0,1,11.88-25.17l42.37-15.19a19.69,19.69,0,0,0-11.89,25.18l53.35,148.85A19.69,19.69,0,0,0,199.92,381.16Z"/><rect class="cls-13" x="136.36" y="215.2" width="7.49" height="20.33" rx="3.74" transform="translate(-67.82 60.49) rotate(-19.72)"/><rect class="cls-13" x="165.97" y="236.56" width="7.49" height="20.33" rx="3.74" transform="translate(163.13 -52.66) rotate(33.26)"/><rect class="cls-13" x="186.3" y="259.1" width="7.49" height="20.33" rx="3.74" transform="translate(178.82 -60.12) rotate(33.26)"/><rect class="cls-14" x="167.51" y="201.33" width="7.49" height="20.33" rx="3.74" transform="translate(144.06 -59.28) rotate(33.26)"/><rect class="cls-14" x="162.56" y="273.09" width="7.49" height="20.33" rx="3.74" transform="translate(-162.03 292.65) rotate(-61.22)"/><rect class="cls-14" x="147.19" y="194.64" width="7.49" height="20.33" rx="3.74" transform="translate(-101.24 238.49) rotate(-61.22)"/><rect class="cls-14" x="194.31" y="289.33" width="7.49" height="20.33" rx="3.74" transform="translate(77.1 -38.58) rotate(13.79)"/><path class="cls-15" d="M284.4,300H190.3a10,10,0,0,1-9.69-12.08,58,58,0,0,1,113.48,0A10,10,0,0,1,284.4,300Z"/><path class="cls-16" d="M255.34,244.85c-1.05.34-2.08.71-3.1,1.11a58.13,58.13,0,0,0-35.63,42A10,10,0,0,0,226.3,300h-36a10,10,0,0,1-9.69-12.08,58,58,0,0,1,74.73-43.07Z"/><path class="cls-17" d="M259.1,246.22c-2.78,8.37-8.14,17.24-12.84,24.07A7.42,7.42,0,0,1,233.34,269,66.52,66.52,0,0,0,216.24,246a58.2,58.2,0,0,1,42.86.26Z"/><path class="cls-18" d="M390.29,300h-94.1a10,10,0,0,1-9.69-12.08,58,58,0,0,1,113.48,0A10,10,0,0,1,390.29,300Z"/><path class="cls-8" d="M361.23,244.85c-1.05.34-2.08.71-3.1,1.11a58.13,58.13,0,0,0-35.63,42A10,10,0,0,0,332.19,300h-36a10,10,0,0,1-9.69-12.08,58,58,0,0,1,74.73-43.07Z"/><path class="cls-19" d="M365,246.22c-2.77,8.37-8.13,17.24-12.84,24.07A7.42,7.42,0,0,1,339.23,269,66.4,66.4,0,0,0,322.13,246a58.2,58.2,0,0,1,42.86.26Z"/><path class="cls-3" d="M431.24,308.87v72.72q0,4-.36,7.86a86.68,86.68,0,0,1-78.43,78.44c-2.59.24-5.22.36-7.87.36H170.68A86.61,86.61,0,0,1,84,381.59V308.87Z"/><path class="cls-4" d="M177.74,308.87,86.1,400.51A86.72,86.72,0,0,1,84,381.59V361.75l52.88-52.88Z"/><path class="cls-4" d="M260,308.87,118.27,450.61a87,87,0,0,1-19.78-21.08L219.15,308.87Z"/><path class="cls-4" d="M343.24,308.87,183.87,468.25H170.68a86.44,86.44,0,0,1-24.22-3.44L302.4,308.87Z"/><path class="cls-20" d="M241.61,468.25H170.89a86.61,86.61,0,0,1-86.66-86.66V308.87H155v72.72A86.72,86.72,0,0,0,157,400.51a86,86,0,0,0,12.4,29,86.35,86.35,0,0,0,19.77,21.08,86.45,86.45,0,0,0,52.41,17.64Z"/><path class="cls-21" d="M155,308.87v23L86.31,400.51a86.72,86.72,0,0,1-2.08-18.92V361.75l52.88-52.88Z"/><path class="cls-21" d="M159.56,409.52l-41.08,41.09A87,87,0,0,1,98.7,429.53L155,373.28v8.31A86.72,86.72,0,0,0,157,400.51,85.12,85.12,0,0,0,159.56,409.52Z"/><path class="cls-21" d="M196.64,455.69l-12.56,12.56H170.89a86.51,86.51,0,0,1-24.23-3.44l28.09-28.09a87.54,87.54,0,0,0,14.45,13.89A86.33,86.33,0,0,0,196.64,455.69Z"/><polygon class="cls-4" points="425.5 308.87 266.13 468.25 225.27 468.25 384.64 308.87 425.5 308.87"/><path class="cls-4" d="M431.24,348.25v33.34q0,4-.36,7.86l-78.43,78.44c-2.59.24-5.22.36-7.87.36H311.23Z"/><rect class="cls-22" x="72.07" y="291.94" width="368.55" height="36.86" rx="18.43"/><path class="cls-23" d="M372,296.81,269.47,399.36a7.6,7.6,0,0,1-10.72,0L156.21,296.81a4.27,4.27,0,0,1,3-7.29H369A4.27,4.27,0,0,1,372,296.81Z"/><path class="cls-24" d="M351.28,289.52l-81.81,81.82a7.58,7.58,0,0,1-10.72,0l-81.81-81.82Z"/><path class="cls-23" d="M323.26,289.52l-53.79,53.8a7.58,7.58,0,0,1-10.72,0L205,289.52Z"/><path class="cls-24" d="M299.93,289.52,269.47,320a7.58,7.58,0,0,1-10.72,0l-30.46-30.47Z"/></g></svg>