<?xml version="1.0" encoding="utf-8"?>
<!-- Generator: Adobe Illustrator 24.0.0, SVG Export Plug-In . SVG Version: 6.00 Build 0)  -->
<svg version="1.1" xmlns="http://www.w3.org/2000/svg" xmlns:xlink="http://www.w3.org/1999/xlink" x="0px" y="0px"
	 viewBox="0 0 256 256" style="enable-background:new 0 0 256 256;" xml:space="preserve">
<style type="text/css">
	.st0{fill:#F98FA6;}
	.st1{fill:#FC657E;}
	.st2{fill:#DAE6F1;}
	.st3{fill:#5290DB;}
	.st4{fill:#FCDD86;}
	.st5{fill:#F5C84C;}
	.st6{fill:#87D147;}
	.st7{fill:#70D6F9;}
	.st8{fill:#EDF4FC;}
	.st9{fill:#9BE5F9;}
	.st10{fill:#B2E26D;}
	.st11{fill:#F9C1A8;}
	.st12{fill:#414344;}
	.st13{fill:#E1FBFF;}
	.st14{fill:#FFE3EC;}
	.st15{fill:#FCBECF;}
	.st16{fill:#EF4460;}
	.st17{fill:#80C2F9;}
	.st18{fill:#3A70BF;}
	.st19{fill:#FCA265;}
	.st20{fill:#5B5D60;}
	.st21{fill:#818182;}
	.st22{fill:#C7D7E5;}
	.st23{fill:#F9D0B4;}
	.st24{fill:#AA6F59;}
	.st25{fill:#D1856D;}
	.st26{fill:#FCC29A;}
	.st27{fill:#29589F;}
	.st28{fill:#F7B386;}
	.st29{fill:#FC8C48;}
	.st30{fill:#FFF0CC;}
	.st31{fill:#57AF12;}
	.st32{fill:#3CAADC;}
	.st33{fill:#EDB311;}
	.st34{fill:#231F20;}
</style>
<g id="Layer_1">
</g>
<g id="Layer_2">
</g>
<g id="Layer_3">
</g>
<g id="Layer_4">
</g>
<g id="Layer_5">
</g>
<g id="Layer_6">
</g>
<g id="Layer_7">
</g>
<g id="Layer_8">
</g>
<g id="Layer_9">
</g>
<g id="Layer_10">
</g>
<g id="Layer_11">
</g>
<g id="Layer_12">
</g>
<g id="Layer_13">
</g>
<g id="Layer_14">
</g>
<g id="Layer_15">
</g>
<g id="Layer_16">
</g>
<g id="Layer_17">
</g>
<g id="Layer_18">
</g>
<g id="Layer_19">
</g>
<g id="Layer_20">
</g>
<g id="Layer_21">
</g>
<g id="Layer_22">
</g>
<g id="Layer_23">
</g>
<g id="Layer_24">
	<g>
		<g>
			<g>
				<path class="st0" d="M193.78,157.855H66.847c-4.57,0-8.083,4.043-7.445,8.568l10.687,75.826
					c0.909,6.453,6.431,11.25,12.947,11.25h94.554c6.516,0,12.038-4.798,12.948-11.25l10.687-75.826
					C201.863,161.898,198.349,157.855,193.78,157.855z"/>
			</g>
		</g>
		<g>
			<g>
				<circle class="st1" cx="130.313" cy="64.891" r="15.022"/>
			</g>
		</g>
		<g>
			<g>
				<path class="st4" d="M198.343,137.231c-1.371-1.834-2.093-4.059-2.385-6.33c-3.693-28.665-25.711-51.579-53.929-56.621
					c-2.753,3.43-6.974,5.631-11.715,5.631c-4.74,0-8.961-2.201-11.714-5.63c-28.457,5.084-50.612,28.341-54.024,57.345
					c-0.26,2.212-0.991,4.35-2.25,6.188c-1.608,2.348-2.845,5.17-2.845,7.816c0,5.213,2.861,9.78,7.083,12.24
					c0.095-0.004,0.188-0.016,0.284-0.016H193.78c0.096,0,0.189,0.012,0.284,0.016c4.222-2.46,7.083-7.027,7.083-12.24
					C201.147,142.486,200.099,139.582,198.343,137.231z"/>
			</g>
		</g>
		<g>
			<g>
				<path class="st10" d="M168.076,51.495c-7.298-1.399-15.135,0.263-21.407,5.252c-0.9,0.716-1.74,1.48-2.521,2.284
					c0.764,1.801,1.187,3.781,1.187,5.86c0,3.556-1.242,6.818-3.307,9.391l0,0c5.193,0.928,10.174,2.465,14.871,4.528
					c1.699-0.828,3.339-1.841,4.881-3.068c6.272-4.989,9.653-12.252,9.932-19.677C171.794,53.859,170.244,51.91,168.076,51.495z"/>
			</g>
		</g>
		<g>
			<g>
				
					<ellipse transform="matrix(0.7071 -0.7071 0.7071 0.7071 -68.5703 107.7815)" class="st5" cx="95.819" cy="136.662" rx="5.564" ry="5.564"/>
			</g>
		</g>
		<g>
			<g>
				<path class="st5" d="M158.132,125.535c-3.073,0-5.564,2.491-5.564,5.564s2.491,5.564,5.564,5.564
					c3.073,0,5.564-2.491,5.564-5.564S161.205,125.535,158.132,125.535z"/>
			</g>
		</g>
		<g>
			<g>
				
					<ellipse transform="matrix(0.7071 -0.7071 0.7071 0.7071 -1.548 79.6091)" class="st10" cx="95.323" cy="41.673" rx="5.564" ry="5.564"/>
			</g>
		</g>
		<g>
			<g>
				
					<ellipse transform="matrix(0.9732 -0.2298 0.2298 0.9732 -20.841 29.7926)" class="st10" cx="117.517" cy="104.393" rx="5.564" ry="5.564"/>
			</g>
		</g>
		<g>
			<g>
				<path class="st7" d="M150.408,100.674c-2.203-1.215-4.973-0.415-6.188,1.788l-3.52,6.38c-1.215,2.202-0.415,4.973,1.788,6.188
					s4.973,0.415,6.188-1.788l3.52-6.38C153.411,104.66,152.611,101.889,150.408,100.674z"/>
			</g>
		</g>
		<g>
			<g>
				<path class="st1" d="M99.286,3.068c-2.203-1.215-4.973-0.414-6.188,1.788l-3.52,6.38c-1.215,2.202-0.415,4.973,1.788,6.188
					c2.203,1.215,4.973,0.415,6.188-1.788l3.52-6.38C102.289,7.053,101.489,4.283,99.286,3.068z"/>
			</g>
		</g>
		<g>
			<g>
				<path class="st1" d="M135.706,126.771l-6.378-3.525c-2.201-1.217-4.972-0.419-6.189,1.783c-1.217,2.202-0.419,4.972,1.783,6.189
					l6.378,3.525c2.201,1.217,4.972,0.419,6.189-1.783C138.705,130.759,137.907,127.988,135.706,126.771z"/>
			</g>
		</g>
		<g>
			<g>
				<path class="st5" d="M82.246,60.72l-6.378-3.525c-2.201-1.217-4.972-0.419-6.189,1.783c-1.217,2.202-0.419,4.973,1.783,6.189
					l6.378,3.525c2.201,1.217,4.972,0.419,6.189-1.783C85.246,64.707,84.447,61.936,82.246,60.72z"/>
			</g>
		</g>
		<g>
			<g>
				<ellipse class="st7" cx="130.313" cy="204.998" rx="39.152" ry="15.363"/>
			</g>
		</g>
		<g>
			<g>
				<path class="st9" d="M80.688,28.485l-2.724-7.239c-0.612-1.626-2.425-2.448-4.051-1.836l-7.239,2.724
					c-1.626,0.612-2.448,2.425-1.836,4.051l2.724,7.239c0.612,1.626,2.425,2.448,4.051,1.836l7.239-2.724
					C80.478,31.924,81.3,30.11,80.688,28.485z"/>
			</g>
		</g>
		<g>
			<g>
				<path class="st5" d="M216.125,98.697c-4.498-0.838-8.043-4.31-8.898-8.716c-0.043-0.221-0.352-0.221-0.395,0
					c-0.855,4.406-4.4,7.879-8.898,8.716c-0.226,0.042-0.226,0.345,0,0.387c4.498,0.838,8.043,4.31,8.898,8.717
					c0.043,0.221,0.352,0.221,0.395,0c0.855-4.406,4.4-7.879,8.898-8.717C216.351,99.042,216.351,98.739,216.125,98.697z"/>
			</g>
		</g>
		<g>
			<g>
				<path class="st7" d="M132.624,6.039c-3.058-0.569-5.468-2.93-6.049-5.926c-0.029-0.151-0.239-0.151-0.268,0
					c-0.581,2.995-2.991,5.356-6.049,5.926c-0.154,0.029-0.154,0.234,0,0.263c3.058,0.57,5.468,2.93,6.049,5.926
					c0.029,0.15,0.239,0.15,0.268,0c0.581-2.995,2.991-5.356,6.049-5.926C132.777,6.273,132.777,6.067,132.624,6.039z"/>
			</g>
		</g>
		<g>
			<g>
				<path class="st7" d="M53.836,200.302h-2.329v-2.33c0-1.744-1.413-3.157-3.157-3.157s-3.157,1.413-3.157,3.157v2.33h-2.33
					c-1.744,0-3.157,1.413-3.157,3.157s1.413,3.157,3.157,3.157h2.33v2.33c0,1.744,1.413,3.157,3.157,3.157s3.157-1.413,3.157-3.157
					v-2.33h2.329c1.744,0,3.157-1.413,3.157-3.157S55.58,200.302,53.836,200.302z"/>
			</g>
		</g>
		<g>
			<g>
				<path class="st1" d="M194.142,73.06c-1.865,0-3.377,1.512-3.377,3.377s1.512,3.377,3.377,3.377s3.377-1.512,3.377-3.377
					S196.007,73.06,194.142,73.06z"/>
			</g>
		</g>
		<g>
			<g>
				<path class="st5" d="M67.142,81.06c-1.865,0-3.377,1.512-3.377,3.377s1.512,3.377,3.377,3.377c1.865,0,3.377-1.512,3.377-3.377
					S69.007,81.06,67.142,81.06z"/>
			</g>
		</g>
		<g>
			<g>
				<path class="st10" d="M137.142,20.06c-1.865,0-3.377,1.512-3.377,3.377s1.512,3.377,3.377,3.377
					c1.865,0,3.377-1.512,3.377-3.377S139.007,20.06,137.142,20.06z"/>
			</g>
		</g>
		<g>
			<g>
				<path d="M141.357,220c-1.36-0.039-2.521,1.07-2.549,2.45l-0.547,27.812c-0.016,0.826-0.041,1.628-0.076,2.4
					c-0.063,1.379,1.004,2.548,2.383,2.611c0.039,0.001,0.078,0.002,0.116,0.002c1.328,0,2.435-1.046,2.495-2.386
					c0.037-0.814,0.064-1.659,0.082-2.53l0.547-27.811C143.835,221.168,142.738,220.027,141.357,220z"/>
			</g>
		</g>
		<g>
			<g>
				<path d="M124.178,250.261l-0.547-27.811c-0.028-1.38-1.189-2.49-2.549-2.45c-1.381,0.027-2.478,1.168-2.451,2.549l0.547,27.811
					c0.018,0.87,0.046,1.714,0.082,2.527c0.059,1.342,1.165,2.389,2.495,2.389c0.037,0,0.075-0.001,0.112-0.002
					c1.38-0.061,2.448-1.229,2.387-2.608C124.22,251.892,124.193,251.089,124.178,250.261z"/>
			</g>
		</g>
		<g>
			<g>
				<g>
					<path d="M201.342,158.803c-1.903-2.191-4.66-3.447-7.563-3.447H66.848c-2.902,0-5.659,1.256-7.563,3.447
						c-1.904,2.191-2.764,5.096-2.358,7.97l10.687,75.825C68.689,250.238,75.32,256,83.036,256h94.555
						c7.716,0,14.347-5.762,15.423-13.401l10.687-75.826C204.105,163.898,203.246,160.994,201.342,158.803z M198.749,166.075
						l-10.687,75.826c-0.73,5.188-5.232,9.099-10.472,9.099H83.036c-5.239,0-9.741-3.912-10.472-9.1l-10.687-75.825
						c-0.203-1.44,0.228-2.896,1.182-3.993c0.953-1.097,2.334-1.727,3.788-1.727h126.932c1.454,0,2.835,0.629,3.788,1.727
						C198.521,163.18,198.952,164.635,198.749,166.075z"/>
				</g>
			</g>
		</g>
		<g>
			<g>
				<g>
					<path d="M130.313,47.369c-9.661,0-17.521,7.86-17.521,17.522s7.86,17.522,17.521,17.522s17.521-7.86,17.521-17.522
						S139.975,47.369,130.313,47.369z M130.313,77.413c-6.904,0-12.521-5.617-12.521-12.522s5.617-12.522,12.521-12.522
						s12.521,5.617,12.521,12.522S137.218,77.413,130.313,77.413z"/>
				</g>
			</g>
		</g>
		<g>
			<g>
				<path d="M120.477,73.927c-0.255-1.357-1.562-2.249-2.919-1.996c-14.39,2.704-27.315,9.81-37.38,20.55
					c-10.11,10.789-16.364,24.224-18.085,38.854c-0.224,1.893-0.856,3.646-1.83,5.067c-2.116,3.09-3.282,6.368-3.282,9.229
					c0,5.78,3.101,11.245,8.093,14.263c0.404,0.244,0.851,0.361,1.291,0.361c0.846,0,1.672-0.43,2.142-1.207
					c0.714-1.182,0.335-2.719-0.847-3.433c-3.503-2.117-5.679-5.943-5.679-9.983c0-1.863,0.854-4.137,2.407-6.404
					c1.43-2.087,2.353-4.614,2.67-7.308c3.217-27.342,24.363-49.99,51.424-55.074C119.838,76.591,120.731,75.284,120.477,73.927z"/>
			</g>
		</g>
		<g>
			<g>
				<path d="M200.346,135.735c-0.998-1.336-1.641-3.07-1.908-5.153c-3.783-29.36-25.847-52.895-54.903-58.563
					c-1.347-0.264-2.667,0.62-2.933,1.975c-0.264,1.355,0.62,2.668,1.976,2.932c26.938,5.255,47.395,27.074,50.901,54.294
					c0.379,2.947,1.342,5.473,2.862,7.508c1.508,2.018,2.306,4.405,2.306,6.903c0,4.041-2.176,7.865-5.678,9.983
					c-1.181,0.714-1.56,2.251-0.846,3.433c0.47,0.777,1.296,1.207,2.142,1.207c0.44,0,0.887-0.117,1.292-0.361
					c4.99-3.017,8.09-8.481,8.09-14.261C203.646,142.046,202.505,138.624,200.346,135.735z"/>
			</g>
		</g>
		<g>
			<g>
				<path d="M168.547,49.04c-8.296-1.593-16.838,0.504-23.435,5.751c-0.756,0.602-1.49,1.249-2.185,1.925
					c-0.988,0.963-1.009,2.546-0.046,3.535c0.965,0.989,2.547,1.01,3.536,0.046c0.573-0.559,1.182-1.095,1.808-1.593
					c5.452-4.337,12.52-6.067,19.38-4.754c0.953,0.183,1.645,1.052,1.608,2.021c-0.262,6.984-3.539,13.478-8.99,17.815
					c-1.107,0.881-2.319,1.675-3.601,2.359c-1.219,0.65-1.679,2.165-1.029,3.382c0.45,0.844,1.314,1.324,2.208,1.324
					c0.397,0,0.8-0.095,1.175-0.295c1.549-0.826,3.016-1.788,4.36-2.857c6.594-5.246,10.557-13.098,10.873-21.542
					C174.337,52.743,171.902,49.683,168.547,49.04z"/>
			</g>
		</g>
		<g>
			<g>
				<path d="M122.563,36.101c-1.253-0.589-2.74-0.05-3.326,1.199c-0.587,1.25-0.051,2.739,1.199,3.326
					c0.072,0.034,7.185,3.499,7.29,14.097c0.014,1.372,1.13,2.475,2.499,2.475h0.025c1.381-0.014,2.489-1.144,2.476-2.525
					C132.59,40.971,122.972,36.293,122.563,36.101z"/>
			</g>
		</g>
		<g>
			<g>
				<path d="M183.596,156.772c-1.359-0.121-2.587,0.898-2.707,2.274l-7.913,90.828c-0.07,0.802-0.183,1.598-0.335,2.367
					c-0.269,1.354,0.612,2.67,1.966,2.938c0.164,0.033,0.328,0.048,0.489,0.048c1.169,0,2.214-0.824,2.449-2.015
					c0.188-0.945,0.326-1.922,0.411-2.905l7.913-90.828C185.989,158.104,184.972,156.892,183.596,156.772z"/>
			</g>
		</g>
		<g>
			<g>
				<path d="M87.986,252.241c-0.152-0.768-0.265-1.565-0.335-2.367l-7.937-91.096c-0.12-1.376-1.352-2.388-2.707-2.274
					c-1.376,0.12-2.394,1.332-2.273,2.708l7.937,91.096c0.085,0.983,0.224,1.96,0.411,2.905c0.235,1.19,1.28,2.015,2.449,2.015
					c0.161,0,0.325-0.016,0.489-0.048C87.374,254.911,88.255,253.595,87.986,252.241z"/>
			</g>
		</g>
		<g>
			<g>
				<path d="M163.8,156.431c-1.411-0.098-2.559,0.981-2.633,2.359l-1.979,36.147c-0.075,1.379,0.98,2.558,2.359,2.633
					c0.047,0.003,0.093,0.004,0.139,0.004c1.318,0,2.422-1.031,2.494-2.363l1.979-36.147
					C166.234,157.685,165.179,156.506,163.8,156.431z"/>
			</g>
		</g>
		<g>
			<g>
				<path d="M160.707,212.944c-1.396-0.096-2.558,0.981-2.633,2.359l-1.896,34.65c-0.046,0.836-0.12,1.665-0.219,2.464
					c-0.171,1.37,0.802,2.619,2.172,2.79c0.104,0.013,0.209,0.02,0.312,0.02c1.243,0,2.32-0.927,2.478-2.192
					c0.114-0.913,0.198-1.857,0.25-2.808l1.896-34.65C163.142,214.198,162.086,213.019,160.707,212.944z"/>
			</g>
		</g>
		<g>
			<g>
				<path d="M104.668,252.417c-0.099-0.799-0.173-1.628-0.219-2.464l-1.884-34.431c-0.074-1.378-1.224-2.444-2.633-2.359
					c-1.379,0.075-2.435,1.254-2.359,2.633l1.884,34.431c0.052,0.95,0.136,1.895,0.25,2.808c0.157,1.266,1.234,2.192,2.478,2.192
					c0.103,0,0.207-0.006,0.312-0.02C103.866,255.037,104.839,253.788,104.668,252.417z"/>
			</g>
		</g>
		<g>
			<g>
				<path d="M99.479,159.139c-0.075-1.378-1.243-2.445-2.633-2.359c-1.379,0.075-2.435,1.254-2.359,2.633l1.962,35.856
					c0.072,1.332,1.176,2.363,2.494,2.363c0.046,0,0.092-0.001,0.139-0.004c1.379-0.075,2.435-1.254,2.359-2.633L99.479,159.139z"/>
			</g>
		</g>
		<g>
			<g>
				<path d="M142.354,156.518c-1.387-0.044-2.521,1.07-2.549,2.45l-0.603,30.618c-0.026,1.38,1.07,2.521,2.451,2.549
					c0.017,0,0.033,0,0.05,0c1.357,0,2.472-1.087,2.498-2.451l0.604-30.618C144.832,157.686,143.735,156.545,142.354,156.518z"/>
			</g>
		</g>
		<g>
			<g>
				<path d="M120.823,159.083c-0.027-1.38-1.201-2.494-2.549-2.45c-1.381,0.027-2.478,1.168-2.451,2.549l0.602,30.502
					c0.026,1.364,1.14,2.451,2.498,2.451c0.017,0,0.033,0,0.05,0c1.381-0.027,2.478-1.168,2.451-2.549L120.823,159.083z"/>
			</g>
		</g>
		<g>
			<g>
				<circle cx="169.486" cy="113.484" r="3.692"/>
			</g>
		</g>
		<g>
			<g>
				<circle cx="145.432" cy="144.098" r="3.692"/>
			</g>
		</g>
		<g>
			<g>
				<circle cx="113.726" cy="138.631" r="3.692"/>
			</g>
		</g>
		<g>
			<g>
				<path d="M100.605,107.605c-2.039,0-3.692,1.653-3.692,3.692c0,2.039,1.653,3.692,3.692,3.692c2.039,0,3.692-1.653,3.692-3.692
					C104.298,109.258,102.645,107.605,100.605,107.605z"/>
			</g>
		</g>
		<g>
			<g>
				<g>
					<path d="M95.818,128.599c-4.446,0-8.063,3.618-8.063,8.064s3.617,8.063,8.063,8.063s8.063-3.617,8.063-8.063
						S100.265,128.599,95.818,128.599z M95.818,139.726c-1.689,0-3.063-1.375-3.063-3.063c0-1.689,1.374-3.064,3.063-3.064
						s3.063,1.375,3.063,3.064C98.882,138.352,97.508,139.726,95.818,139.726z"/>
				</g>
			</g>
		</g>
		<g>
			<g>
				<g>
					<path d="M158.132,123.035c-4.446,0-8.063,3.617-8.063,8.063s3.617,8.064,8.063,8.064s8.063-3.618,8.063-8.064
						S162.578,123.035,158.132,123.035z M158.132,134.163c-1.689,0-3.063-1.375-3.063-3.064s1.374-3.063,3.063-3.063
						s3.063,1.374,3.063,3.063S159.821,134.163,158.132,134.163z"/>
				</g>
			</g>
		</g>
		<g>
			<g>
				<g>
					<path d="M95.322,33.609c-4.446,0-8.063,3.618-8.063,8.064s3.617,8.063,8.063,8.063s8.064-3.617,8.064-8.063
						S99.769,33.609,95.322,33.609z M95.322,44.737c-1.689,0-3.063-1.375-3.063-3.063c0-1.689,1.374-3.064,3.063-3.064
						s3.064,1.375,3.064,3.064C98.387,43.362,97.012,44.737,95.322,44.737z"/>
				</g>
			</g>
		</g>
		<g>
			<g>
				<g>
					<path d="M117.517,96.329c-4.446,0-8.063,3.618-8.063,8.064s3.617,8.063,8.063,8.063s8.064-3.617,8.064-8.063
						S121.963,96.329,117.517,96.329z M117.517,107.457c-1.689,0-3.063-1.375-3.063-3.063c0-1.689,1.374-3.064,3.063-3.064
						s3.064,1.375,3.064,3.064C120.581,106.082,119.206,107.457,117.517,107.457z"/>
				</g>
			</g>
		</g>
		<g>
			<g>
				<g>
					<g>
						<path d="M154.985,102.704c-0.522-1.811-1.72-3.309-3.369-4.219c-1.651-0.911-3.557-1.123-5.366-0.601
							c-1.81,0.523-3.309,1.72-4.218,3.369l-3.521,6.381c-0.91,1.65-1.123,3.555-0.6,5.365c0.522,1.811,1.72,3.309,3.369,4.219
							c3.433,1.894,7.714,0.624,9.584-2.769l3.521-6.381C155.296,106.419,155.509,104.514,154.985,102.704z M150.008,105.654
							l-3.521,6.381c-0.265,0.48-0.701,0.829-1.229,0.981c-0.527,0.152-1.083,0.09-1.562-0.175c-0.481-0.265-0.83-0.702-0.982-1.229
							c-0.152-0.527-0.09-1.082,0.175-1.562l3.521-6.381c0.265-0.48,0.701-0.829,1.229-0.981c0.188-0.055,0.381-0.082,0.572-0.082
							c0.343,0,0.682,0.087,0.99,0.257c0.48,0.265,0.829,0.701,0.981,1.228C150.335,104.619,150.272,105.174,150.008,105.654z"/>
					</g>
				</g>
			</g>
		</g>
		<g>
			<g>
				<g>
					<g>
						<path d="M103.863,5.098c-0.522-1.811-1.72-3.309-3.369-4.219c-1.651-0.911-3.556-1.124-5.366-0.6
							c-1.811,0.523-3.309,1.72-4.218,3.369l-3.521,6.381c-0.91,1.65-1.123,3.555-0.6,5.365c0.522,1.811,1.72,3.309,3.369,4.219
							c0,0,0.001,0,0.001,0c1.058,0.583,2.221,0.88,3.396,0.88c0.658,0,1.319-0.093,1.969-0.28c1.81-0.523,3.309-1.72,4.218-3.369
							l3.521-6.381C104.174,8.813,104.387,6.908,103.863,5.098z M98.886,8.047l-3.521,6.381c-0.265,0.48-0.701,0.829-1.229,0.981
							c-0.526,0.152-1.082,0.09-1.562-0.175l-0.001,0c-0.48-0.265-0.829-0.701-0.981-1.228c-0.152-0.527-0.09-1.082,0.175-1.562
							l3.521-6.381c0.265-0.48,0.701-0.829,1.229-0.981C96.705,5.027,96.897,5,97.089,5c0.343,0,0.682,0.086,0.989,0.256
							c0.481,0.265,0.83,0.702,0.982,1.229C99.213,7.012,99.15,7.567,98.886,8.047z"/>
					</g>
				</g>
			</g>
		</g>
		<g>
			<g>
				<g>
					<g>
						<path d="M140.281,128.804c-0.521-1.811-1.718-3.31-3.366-4.221l-6.377-3.525c-1.648-0.911-3.556-1.127-5.365-0.605
							c-1.812,0.521-3.311,1.717-4.223,3.366c-0.911,1.649-1.126,3.555-0.604,5.365s1.718,3.31,3.366,4.221l6.377,3.525
							c3.427,1.893,7.708,0.638,9.588-2.761C140.588,132.52,140.803,130.615,140.281,128.804z M135.3,131.75
							c-0.265,0.48-0.701,0.829-1.229,0.98c-0.529,0.151-1.083,0.089-1.563-0.176l-6.378-3.525c-0.48-0.266-0.828-0.702-0.98-1.229
							c-0.151-0.527-0.089-1.082,0.177-1.563c0.265-0.48,0.701-0.829,1.229-0.98c0.189-0.054,0.381-0.081,0.572-0.081
							c0.343,0,0.683,0.087,0.99,0.257l6.378,3.525c0.48,0.266,0.828,0.702,0.98,1.229C135.628,130.715,135.565,131.27,135.3,131.75
							z"/>
					</g>
				</g>
			</g>
		</g>
		<g>
			<g>
				<g>
					<g>
						<path d="M86.821,62.753c-0.521-1.811-1.717-3.31-3.366-4.221l-6.377-3.525c-1.648-0.911-3.554-1.127-5.365-0.605
							c-1.811,0.521-3.31,1.717-4.221,3.366c-0.912,1.649-1.128,3.555-0.605,5.366c0.521,1.811,1.717,3.31,3.366,4.221l6.377,3.525
							c1.06,0.585,2.225,0.884,3.403,0.884c0.655,0,1.314-0.092,1.962-0.279c1.811-0.521,3.31-1.717,4.221-3.365
							C87.128,66.47,87.344,64.564,86.821,62.753z M81.84,65.699c-0.265,0.48-0.701,0.829-1.229,0.98
							c-0.527,0.152-1.082,0.089-1.563-0.176l-6.378-3.525c-0.48-0.266-0.828-0.702-0.979-1.229
							c-0.152-0.527-0.09-1.082,0.176-1.562c0,0,0,0,0.001,0c0.265-0.48,0.701-0.829,1.229-0.98
							c0.188-0.054,0.381-0.081,0.571-0.081c0.343,0,0.683,0.087,0.991,0.257l6.377,3.525c0.48,0.266,0.829,0.702,0.98,1.229
							C82.169,64.664,82.106,65.219,81.84,65.699z"/>
					</g>
				</g>
			</g>
		</g>
		<g>
			<g>
				<g>
					<path d="M130.313,187.135c-23.746,0-41.652,7.68-41.652,17.863c0,10.184,17.906,17.864,41.652,17.864
						s41.652-7.68,41.652-17.864C171.966,194.814,154.06,187.135,130.313,187.135z M130.313,217.862
						c-21.6,0-36.652-6.779-36.652-12.864c0-6.084,15.053-12.863,36.652-12.863s36.652,6.779,36.652,12.863
						C166.966,211.083,151.913,217.862,130.313,217.862z"/>
				</g>
			</g>
		</g>
		<g>
			<g>
				<g>
					<path d="M83.028,27.604l-2.724-7.239c-0.53-1.412-1.579-2.532-2.953-3.154c-1.374-0.623-2.906-0.673-4.317-0.142h-0.001
						l-7.238,2.724c-1.411,0.531-2.532,1.579-3.154,2.953c-0.623,1.374-0.673,2.908-0.142,4.318l2.724,7.239
						c0.53,1.412,1.579,2.532,2.952,3.154c0.744,0.337,1.535,0.506,2.328,0.506c0.671,0,1.344-0.121,1.99-0.365l7.24-2.724
						C82.646,33.779,84.124,30.518,83.028,27.604z M77.973,30.196l-7.24,2.724c-0.206,0.078-0.382,0.034-0.493-0.016
						c-0.11-0.05-0.259-0.153-0.337-0.36l-2.724-7.24c-0.078-0.206-0.034-0.381,0.016-0.492c0.051-0.111,0.153-0.259,0.361-0.337
						l7.239-2.724c0.207-0.077,0.383-0.034,0.493,0.017s0.259,0.153,0.337,0.36l2.724,7.239
						C78.474,29.698,78.305,30.071,77.973,30.196z"/>
				</g>
			</g>
		</g>
	</g>
</g>
<g id="Layer_25">
</g>
<g id="Layer_26">
</g>
<g id="Layer_27">
</g>
<g id="Layer_28">
</g>
<g id="Layer_29">
</g>
<g id="Layer_30">
</g>
<g id="Layer_31">
</g>
<g id="Layer_32">
</g>
<g id="Layer_33">
</g>
<g id="Layer_34">
</g>
<g id="Layer_35">
</g>
<g id="Layer_36">
</g>
<g id="Layer_37">
</g>
<g id="Layer_38">
</g>
<g id="Layer_39">
</g>
<g id="Layer_40">
</g>
<g id="Layer_41">
</g>
<g id="Layer_42">
</g>
<g id="Layer_43">
</g>
<g id="Layer_44">
</g>
<g id="Layer_45">
</g>
<g id="Layer_46">
</g>
<g id="Layer_47">
</g>
<g id="Layer_48">
</g>
<g id="Layer_49">
</g>
<g id="Layer_50">
</g>
<g id="Layer_51">
</g>
<g id="Layer_52">
</g>
<g id="Layer_53">
</g>
<g id="Layer_54">
</g>
<g id="Layer_55">
</g>
<g id="Layer_56">
</g>
<g id="Layer_57">
</g>
<g id="Layer_58">
</g>
<g id="Layer_59">
</g>
<g id="Layer_60">
</g>
<g id="Layer_61">
</g>
<g id="Layer_62">
</g>
<g id="Layer_63">
</g>
<g id="Layer_64">
</g>
<g id="Layer_65">
</g>
<g id="Layer_66">
</g>
<g id="Layer_67">
</g>
<g id="Layer_68">
</g>
<g id="Layer_69">
</g>
<g id="Layer_70">
</g>
<g id="Layer_71">
</g>
<g id="Layer_72">
</g>
<g id="Layer_73">
</g>
<g id="Layer_74">
</g>
<g id="Layer_75">
</g>
<g id="Layer_76">
</g>
<g id="Layer_77">
</g>
<g id="Layer_78">
</g>
<g id="Layer_79">
</g>
<g id="Layer_80">
</g>
<g id="Layer_81">
</g>
<g id="Layer_82">
</g>
<g id="Layer_83">
</g>
<g id="Layer_84">
</g>
<g id="Layer_85">
</g>
</svg>
