<svg id="ICON" xmlns="http://www.w3.org/2000/svg" viewBox="0 0 512 512"><defs><style>.cls-1{fill:#345b77;}.cls-2{fill:#18687b;}.cls-3{fill:#dae3e0;}.cls-4{fill:#bf7632;}.cls-5{fill:#71b09c;}.cls-6{fill:#40a895;}.cls-7{fill:#2a3342;}.cls-8{fill:#bbc5c9;}.cls-9{fill:#e1e1e0;}.cls-10{fill:#cf8d53;}.cls-11{fill:#e4a761;}.cls-12{fill:#e7bb9e;}.cls-13{fill:#c9a08a;}</style></defs><title>Cooking</title><path class="cls-1" d="M312.11,61.27a6.95,6.95,0,0,1-7,7H271.25a7,7,0,0,1-7-7,6.95,6.95,0,0,1,7-7h33.87A7,7,0,0,1,312.11,61.27Z"/><path class="cls-1" d="M339.56,367.56a27.9,27.9,0,0,1-27.89,27.9h-47a27.89,27.89,0,0,1-27.89-27.9l3.59-96.32,3.17-85.91,1.24-33.45A43.34,43.34,0,0,1,281,110.67a41.93,41.93,0,0,1,7.21-.6,43.36,43.36,0,0,1,43.36,41.81l1.24,33.45L336,271.24Z"/><rect class="cls-1" x="271.25" y="61.68" width="33.87" height="93.85"/><path class="cls-2" d="M285.71,54.28c-.22,2.32-.48,4.8-.7,7.4-.19,2.1-.38,4.29-.57,6.55-1.05,12.13-2.26,26.49-3.46,42.44-1.05,13.92-2.1,29-3.09,44.86-.6,9.72-1.17,19.7-1.68,29.8-1.46,28.24-2.54,57.66-2.8,85.91-.44,49.27,1.56,95,8.23,124.22H264.71a27.89,27.89,0,0,1-27.89-27.9l3.59-96.32,3.17-85.91,1.24-33.45a43.38,43.38,0,0,1,26.43-38.38V68.23a7,7,0,0,1-7-7,6.95,6.95,0,0,1,7-7Z"/><polygon class="cls-3" points="335.97 271.24 240.41 271.24 243.58 185.33 332.79 185.33 335.97 271.24"/><rect class="cls-4" x="276.32" y="34.19" width="23.73" height="20.09"/><rect class="cls-4" x="397.51" y="34.19" width="23.73" height="20.09"/><path class="cls-5" d="M460.74,367.53a27.88,27.88,0,0,1-27.89,27.89h-47A27.88,27.88,0,0,1,358,367.53l3.59-96.33,3.17-85.91L366,151.84a43.31,43.31,0,0,1,36.16-41.2,41,41,0,0,1,7.21-.61,43.36,43.36,0,0,1,43.36,41.81L454,185.29l3.18,85.91Z"/><rect class="cls-5" x="392.44" y="61.65" width="33.87" height="93.85"/><path class="cls-5" d="M433.29,61.23a6.93,6.93,0,0,1-7,7H392.44a7,7,0,0,1-7-7,6.95,6.95,0,0,1,7-7H426.3A7,7,0,0,1,433.29,61.23Z"/><path class="cls-6" d="M406.89,54.24c-.22,2.32-.48,4.8-.7,7.41-.19,2.09-.38,4.28-.57,6.54-1.05,12.14-2.26,26.5-3.46,42.45-1.05,13.91-2.1,29-3.08,44.85-.61,9.73-1.18,19.7-1.69,29.8-1.46,28.25-2.54,57.67-2.79,85.91-.45,49.28,1.55,95,8.22,124.22H385.89A27.88,27.88,0,0,1,358,367.53l3.59-96.33,3.17-85.91L366,151.84a43.4,43.4,0,0,1,26.44-38.38V68.19a7,7,0,0,1-7-7,6.95,6.95,0,0,1,7-7Z"/><path class="cls-7" d="M72.38,64.28h34.09a0,0,0,0,1,0,0v63.91a17,17,0,0,1-17,17h0a17,17,0,0,1-17-17V64.28a0,0,0,0,1,0,0Z" transform="translate(210.62 170.17) rotate(158.84)"/><path class="cls-8" d="M106.77,134h0a77.37,77.37,0,0,1,77.37,77.37V374.87a26.69,26.69,0,0,1-26.69,26.69H106.77a0,0,0,0,1,0,0V134A0,0,0,0,1,106.77,134Z" transform="translate(377.73 464.99) rotate(158.84)"/><rect class="cls-9" x="119.21" y="173.6" width="23.6" height="168.37" rx="11.8" transform="translate(346.23 450.92) rotate(158.84)"/><rect class="cls-10" x="25.77" y="410.74" width="460.45" height="67.07"/><rect class="cls-11" x="25.77" y="394.8" width="460.45" height="51.35"/><path class="cls-12" d="M387.39,364.23a28.32,28.32,0,0,1-3.45,13.48,32.91,32.91,0,0,1-7.88,9.66A42.5,42.5,0,0,1,348.68,397H91.85c-15.67,0-29.18-7.88-35.26-19.24a28.31,28.31,0,0,1-3.44-13.48c0-11.53,5.51-22,14.44-29.53a54.18,54.18,0,0,1,34.92-12.24H338c1,0,2,0,2.94.08C366.86,323.82,387.39,342,387.39,364.23Z"/><path class="cls-13" d="M161.24,322.46a8.79,8.79,0,0,1-2.17,5.06l-32.46,37.86c-3.77,4.41-11.09,5.4-16.34,2.21s-6.39-9.41-2.61-13.82l26.84-31.31Z"/><path class="cls-13" d="M223.41,322.46a8.85,8.85,0,0,1-2.17,5.06l-32.46,37.86c-3.81,4.41-11.1,5.4-16.34,2.21s-6.39-9.41-2.61-13.82l26.84-31.31Z"/><path class="cls-13" d="M285.94,322.46a8.72,8.72,0,0,1-2.17,5.06l-32.45,37.86c-3.81,4.41-11.1,5.4-16.35,2.21s-6.38-9.41-2.6-13.82l26.84-31.31Z"/><path class="cls-13" d="M341,322.54a9,9,0,0,1-2.17,5l-32.46,37.86c-3.77,4.41-11.09,5.4-16.34,2.21s-6.38-9.41-2.61-13.82l26.84-31.31H338C339,322.46,340,322.49,341,322.54Z"/><path class="cls-13" d="M383.94,377.71a32.91,32.91,0,0,1-7.88,9.66A42.5,42.5,0,0,1,348.68,397H91.85c-15.67,0-29.18-7.88-35.26-19.24Z"/><polygon class="cls-3" points="457.15 271.2 361.59 271.2 364.76 185.29 453.97 185.29 457.15 271.2"/></svg>