<svg xmlns="http://www.w3.org/2000/svg" viewBox="0 0 512 512"><defs><style>.cls-1{fill:#619fd8;}.cls-2{fill:#af8f6d;}.cls-3{fill:#c19e75;}.cls-4{fill:#d4af7e;}.cls-5{fill:#eaac6c;}.cls-6{fill:#9a704e;}.cls-7{fill:#ad7d55;}.cls-8{fill:#eec586;}.cls-9{fill:#fff;}</style></defs><title>Charity</title><g id="BULINE"><circle class="cls-1" cx="256" cy="262" r="250"/></g><g id="Icons"><path class="cls-2" d="M208.23,289.51h85.6a17,17,0,0,1,17,17v0a17,17,0,0,1-17,17h-85.6a0,0,0,0,1,0,0v-34A0,0,0,0,1,208.23,289.51Z" transform="translate(-127.27 414.59) rotate(-65.36)"/><path class="cls-3" d="M228,280.7H352.6a24.72,24.72,0,0,1,24.72,24.72v0a24.72,24.72,0,0,1-24.72,24.72H228a0,0,0,0,1,0,0V280.7a0,0,0,0,1,0,0Z" transform="translate(-101.14 453.18) rotate(-65.36)"/><path class="cls-4" d="M274.46,265H399a24.72,24.72,0,0,1,24.72,24.72v0A24.72,24.72,0,0,1,399,314.42H274.46a0,0,0,0,1,0,0V265a0,0,0,0,1,0,0Z" transform="translate(-59.76 486.23) rotate(-65.36)"/><path class="cls-5" d="M404.38,130.89v63.28A28.86,28.86,0,0,1,375.52,223h0a28.86,28.86,0,0,1-28.86-28.86v-66H285.61v66A28.86,28.86,0,0,1,256.75,223h0a28.87,28.87,0,0,1-28.86-28.86v-66H171.77v66a28.86,28.86,0,0,1-57.72,0V135.94A129.35,129.35,0,0,0,29.13,257.42h0A17.78,17.78,0,0,0,46.91,275.2H489.22A17.78,17.78,0,0,0,507,257.42h0A129.34,129.34,0,0,0,404.38,130.89Z"/><path class="cls-6" d="M142.91,197.22a28.86,28.86,0,0,1-28.86-28.86v25.81a28.86,28.86,0,0,0,57.72,0V168.36A28.86,28.86,0,0,1,142.91,197.22Z"/><path class="cls-6" d="M256.75,197.22h0a28.87,28.87,0,0,1-28.86-28.86v25.81A28.87,28.87,0,0,0,256.75,223h0a28.86,28.86,0,0,0,28.86-28.86V168.36A28.86,28.86,0,0,1,256.75,197.22Z"/><path class="cls-6" d="M375.52,197.22h0a28.86,28.86,0,0,1-28.86-28.86v25.81A28.86,28.86,0,0,0,375.52,223h0a28.86,28.86,0,0,0,28.86-28.86V168.36A28.86,28.86,0,0,1,375.52,197.22Z"/><path class="cls-7" d="M114.05,135.94v32.42a28.86,28.86,0,0,0,57.72,0V128.12H158.43A129,129,0,0,0,114.05,135.94Z"/><path class="cls-7" d="M227.89,168.36a28.87,28.87,0,0,0,28.86,28.86h0a28.86,28.86,0,0,0,28.86-28.86V128.12H227.89Z"/><path class="cls-7" d="M346.66,128.12v40.24a28.86,28.86,0,0,0,28.86,28.86h0a28.86,28.86,0,0,0,28.86-28.86V130.89a130.24,130.24,0,0,0-26.68-2.77Z"/><path class="cls-8" d="M436.34,275.2a27.08,27.08,0,0,1-5,9.11l-54.47,65.37-86.93,75A30.22,30.22,0,0,1,269.34,432l-112.52-3.34-81.48,6.19A249.47,249.47,0,0,1,11.77,315.66L138.56,306l36.13-30.83,68-60.61c9.58-8.17,23-10.68,34.59-5.78a28.25,28.25,0,0,1,11.94,9.2,21.11,21.11,0,0,1,4.2,12.66,24.29,24.29,0,0,1-1.6,8.52,32,32,0,0,1-5.24,9c-.44.54-.87,1.08-1.27,1.65L281,256l-34.75,41c-9.42,13.44,2.39,31.79,18.44,28.35l.37-.08,1.41-.32,3.61-.81,40.17-9.07,7.11-1.61a47.52,47.52,0,0,0,23.53-13.2l24.31-25.07,26.56-27.4a26.26,26.26,0,0,1,2.85-2.55,26.91,26.91,0,0,1,34.29,1.1C437.08,253.54,439.57,265.17,436.34,275.2Z"/><path class="cls-9" d="M256.07,215.66h19.39a9.21,9.21,0,0,1,9.21,9.21V236.5a12.12,12.12,0,0,1-12.12,12.12H259a12.12,12.12,0,0,1-12.12-12.12V224.87a9.21,9.21,0,0,1,9.21-9.21Z" transform="translate(217.21 -117.38) rotate(40.95)"/></g></svg>